# generated from PmQm by Jehee Lee
:FULLY-SPECIFIED
:DEGREES
275
root 6.0872 38.4454 -25.3557 -162.47 -1.90474 -176.425
RightUpLeg -36.7456 3.04333 2.38689
RightLeg 12.8641 -0.0895429 -0.128511
RightFoot 3.16223 -0.094067 0.908796
RightToes -0.000541893 -0.000659172 -0.000493268
Spine 9.5897 1.36223 0.936823
Spine1 19.283 2.3211 1.25806
HEad -19.7123 12.1369 -15.0867
LeftShoulder1 -3.88251e-019 -0 -3.92111e-022
LeftArm -25.7769 -15.1014 -76.5928
LeftForeArm 21.4918 -14.8581 -4.23111
LeftHand -0.996321 -5.30802 11.0944
RightShoulder 7.45443e-017 -2.42657e-020 1.96277e-018
RightArm -15.4643 11.913 74.8297
RightForeArm 25.1344 9.37947 8.92641
RightHand -1.38157 10.089 -10.7064
LeftUpLeg -37.2938 -3.07498 7.58451
LeftLeg 18.7021 -5.45408 -1.72838
LeftFoot -3.02402 0.38984 -5.11078
LeftToes 3.91355e-005 3.11907e-005 -4.10385e-006
276
root 5.54763 38.3205 -24.6859 -160.624 -0.185043 -176.279
RightUpLeg -38.7847 5.02748 1.46938
RightLeg 11.8537 0.414528 -1.19829
RightFoot 3.75314 -0.3185 2.58397
RightToes -0.000541893 -0.000659172 -0.000493268
Spine 10.2978 1.39337 0.888944
Spine1 20.7044 2.31035 1.08006
HEad -20.9158 11.097 -15.6421
LeftShoulder1 -3.88251e-019 -0 -3.92111e-022
LeftArm -25.2042 -17.7484 -76.6294
LeftForeArm 21.3569 -16.3053 -3.90042
LeftHand -0.975767 -5.19917 10.9791
RightShoulder 7.45443e-017 -2.42657e-020 1.96277e-018
RightArm -13.459 12.454 74.8063
RightForeArm 23.4864 10.7053 9.1595
RightHand -1.45812 10.4127 -11.0547
LeftUpLeg -40.1261 -2.64044 7.11176
LeftLeg 18.596 -4.0307 -1.18392
LeftFoot -1.97675 0.426386 -5.05903
LeftToes 3.91355e-005 3.11907e-005 -4.10385e-006
277
root 5.05783 38.1397 -24.062 -159.358 1.04514 -176.34
RightUpLeg -40.8934 5.20368 0.83403
RightLeg 10.9295 1.82799 -1.76178
RightFoot 5.09876 -0.610587 4.47238
RightToes -0.000541893 -0.000659172 -0.000493268
Spine 11.1317 1.3179 0.957616
Spine1 22.3782 2.04993 1.07395
HEad -21.6353 10.2427 -16.0859
LeftShoulder1 -3.88251e-019 -0 -3.92111e-022
LeftArm -24.6496 -19.9231 -77.2918
LeftForeArm 21.312 -17.8116 -3.63212
LeftHand -0.993118 -5.17822 11.1882
RightShoulder 7.45443e-017 -2.42657e-020 1.96277e-018
RightArm -11.2662 13.2275 74.575
RightForeArm 19.4382 12.1302 9.13709
RightHand -1.53841 10.8617 -11.3342
LeftUpLeg -42.6409 -1.94629 6.19433
LeftLeg 19.0943 -3.58021 -1.05109
LeftFoot -1.35049 0.464384 -5.21965
LeftToes 3.91355e-005 3.11907e-005 -4.10385e-006
278
root 4.62052 37.8376 -23.4933 -158.449 2.22018 -176.337
RightUpLeg -43.7704 5.6215 -0.232389
RightLeg 12.3366 2.57753 -1.37959
RightFoot 5.36045 -0.662939 4.76456
RightToes -0.000541893 -0.000659172 -0.000493268
Spine 11.9808 1.26358 1.05053
Spine1 24.0916 1.85293 1.19508
HEad -21.8894 9.59363 -16.0684
LeftShoulder1 -3.88251e-019 -0 -3.92111e-022
LeftArm -24.0874 -21.4666 -78.4621
LeftForeArm 21.6134 -19.3784 -3.4817
LeftHand -1.01347 -5.28626 11.3008
RightShoulder 7.45443e-017 -2.42657e-020 1.96277e-018
RightArm -8.01013 13.9492 74.3175
RightForeArm 14.3748 14.2929 8.60184
RightHand -1.54651 10.9426 -11.3378
LeftUpLeg -45.4683 -0.752867 5.06509
LeftLeg 21.0976 -3.57285 -1.192
LeftFoot -1.59932 0.464694 -5.34137
LeftToes 3.91355e-005 3.11907e-005 -4.10385e-006
279
root 4.21662 37.3928 -23.001 -157.38 3.62697 -176.441
RightUpLeg -47.925 6.60613 -2.34967
RightLeg 15.8729 2.01798 -0.345746
RightFoot 4.75634 -0.620334 4.61365
RightToes -0.000541893 -0.000659172 -0.000493268
Spine 12.6793 1.23293 0.985345
Spine1 25.5129 1.76014 1.08363
HEad -22.2883 9.23744 -15.8418
LeftShoulder1 -3.88251e-019 -0 -3.92111e-022
LeftArm -22.7886 -22.4187 -79.5107
LeftForeArm 21.9109 -21.2811 -3.60176
LeftHand -1.00619 -5.23289 11.2758
RightShoulder 7.45443e-017 -2.42657e-020 1.96277e-018
RightArm -5.17387 15.0167 74.2368
RightForeArm 10.1859 16.3746 7.69196
RightHand -1.63498 11.1096 -11.8428
LeftUpLeg -49.1089 0.273298 3.94441
LeftLeg 24.4617 -3.33399 -1.32101
LeftFoot -2.22039 0.404101 -4.90278
LeftToes 3.91355e-005 3.11907e-005 -4.10385e-006
280
root 3.85198 36.8057 -22.6191 -156.494 5.04108 -176.594
RightUpLeg -52.4707 6.43117 -3.51235
RightLeg 20.7666 2.77564 0.947738
RightFoot 3.69311 -0.598572 4.7244
RightToes -0.000541893 -0.000659172 -0.000493268
Spine 13.2215 1.1871 0.87258
Spine1 26.6298 1.65416 0.869474
HEad -22.689 9.25205 -15.6619
LeftShoulder1 -3.88251e-019 -0 -3.92111e-022
LeftArm -21.1043 -22.6879 -80.2642
LeftForeArm 23.0417 -23.3175 -3.79694
LeftHand -0.97623 -5.15379 11.0287
RightShoulder 7.45443e-017 -2.42657e-020 1.96277e-018
RightArm -4.00759 16.3787 74.0701
RightForeArm 7.63059 17.6023 7.00735
RightHand -1.76497 11.5169 -12.4525
LeftUpLeg -53.1108 1.08891 2.86797
LeftLeg 29.1156 -3.0972 -1.52161
LeftFoot -3.45124 0.287952 -3.87471
LeftToes 3.91355e-005 3.11907e-005 -4.10385e-006
281
root 3.53816 36.0635 -22.3342 -156.325 6.08957 -176.43
RightUpLeg -56.6079 5.66514 -3.16317
RightLeg 26.9079 4.39834 2.19164
RightFoot 1.9185 -0.508509 4.48167
RightToes -0.000541893 -0.000659172 -0.000493268
Spine 13.7305 1.15866 0.960038
Spine1 27.6887 1.54282 1.01887
HEad -22.3743 9.22486 -15.3192
LeftShoulder1 -3.88251e-019 -0 -3.92111e-022
LeftArm -19.6844 -22.5907 -81.1599
LeftForeArm 24.1381 -24.0996 -3.87938
LeftHand -0.942888 -5.15467 10.6642
RightShoulder 7.45443e-017 -2.42657e-020 1.96277e-018
RightArm -3.22741 17.5405 73.5926
RightForeArm 5.29161 18.4347 6.62962
RightHand -1.82064 11.8262 -12.6099
LeftUpLeg -56.9322 1.83162 2.16039
LeftLeg 35.0685 -2.86539 -1.79741
LeftFoot -5.49804 0.169429 -2.66978
LeftToes 3.91355e-005 3.11907e-005 -4.10385e-006
282
root 3.261 35.1941 -22.1195 -157.036 6.9821 -175.994
RightUpLeg -60.0433 5.55671 -2.83426
RightLeg 33.6576 5.0062 3.32934
RightFoot -0.37598 -0.399817 4.13904
RightToes -0.000541893 -0.000659172 -0.000493268
Spine 14.3382 1.17607 1.18721
Spine1 28.9478 1.49969 1.4257
HEad -21.2729 8.63946 -14.7991
LeftShoulder1 -3.88251e-019 -0 -3.92111e-022
LeftArm -17.4124 -22.7253 -82.1654
LeftForeArm 21.9831 -22.1965 -3.83244
LeftHand -0.977688 -5.25656 10.9441
RightShoulder 7.45443e-017 -2.42657e-020 1.96277e-018
RightArm -2.72159 18.6296 73.1316
RightForeArm 3.62613 18.8779 6.48312
RightHand -1.84579 11.9949 -12.6587
LeftUpLeg -60.1199 2.30869 2.00788
LeftLeg 41.7242 -2.36057 -1.85913
LeftFoot -7.81788 0.0949009 -1.55592
LeftToes 3.91355e-005 3.11907e-005 -4.10385e-006
283
root 3.00731 34.2807 -21.9628 -158.45 8.14499 -175.943
RightUpLeg -62.7621 5.71156 -3.00268
RightLeg 40.3198 5.34651 4.57379
RightFoot -2.65466 -0.323263 4.01962
RightToes -0.000541893 -0.000659172 -0.000493268
Spine 14.9759 1.1523 1.2514
Spine1 30.2606 1.44566 1.52497
HEad -20.116 7.5836 -14.4295
LeftShoulder1 -3.88251e-019 -0 -3.92111e-022
LeftArm -16.7264 -22.9469 -82.6821
LeftForeArm 21.1142 -18.0863 -4.49626
LeftHand -1.13755 -5.55058 12.3412
RightShoulder 7.45443e-017 -2.42657e-020 1.96277e-018
RightArm -3.74241 19.8858 73.0439
RightForeArm 4.19994 18.5214 6.52533
RightHand -1.90479 12.1411 -12.9428
LeftUpLeg -62.3445 2.37642 1.79242
LeftLeg 48.0665 -1.60332 -1.47463
LeftFoot -9.99531 0.0675414 -0.612835
LeftToes 3.91355e-005 3.11907e-005 -4.10385e-006
284
root 2.78713 33.3812 -21.8288 -160.206 9.27127 -176.391
RightUpLeg -64.9803 5.97758 -3.75078
RightLeg 46.4814 5.36431 5.71083
RightFoot -4.69187 -0.246871 3.6943
RightToes -0.000541893 -0.000659172 -0.000493268
Spine 15.4465 1.0051 1.20499
Spine1 31.2293 1.20506 1.41977
HEad -19.5137 6.59151 -14.3191
LeftShoulder1 -3.88251e-019 -0 -3.92111e-022
LeftArm -19.0552 -22.3913 -82.7836
LeftForeArm 24.8295 -14.445 -4.84473
LeftHand -1.34885 -5.62798 14.4608
RightShoulder 7.45443e-017 -2.42657e-020 1.96277e-018
RightArm -5.34288 20.8601 73.1439
RightForeArm 5.20741 17.9144 6.55033
RightHand -1.9338 12.1598 -13.1188
LeftUpLeg -63.8702 2.04309 1.29803
LeftLeg 53.6412 -0.828805 -0.718622
LeftFoot -11.9574 0.0715172 -0.0905984
LeftToes 3.91355e-005 3.11907e-005 -4.10385e-006
285
root 2.61825 32.4938 -21.6734 -162.002 10.0266 -176.639
RightUpLeg -66.8398 6.69882 -4.56457
RightLeg 51.8742 4.78112 6.14086
RightFoot -6.45607 -0.188078 3.3783
RightToes -0.000541893 -0.000659172 -0.000493268
Spine 15.7206 0.88603 1.32572
Spine1 31.8003 0.968463 1.62946
HEad -19.3613 5.90297 -14.29
LeftShoulder1 -3.88251e-019 -0 -3.92111e-022
LeftArm -21.5093 -20.6673 -82.9254
LeftForeArm 26.3255 -13.1187 -4.10542
LeftHand -1.53504 -5.47139 16.6173
RightShoulder 7.45443e-017 -2.42657e-020 1.96277e-018
RightArm -5.63938 21.2417 73.1072
RightForeArm 4.31141 17.7207 6.62561
RightHand -1.92549 12.0878 -13.1159
LeftUpLeg -65.2162 1.5991 1.16515
LeftLeg 58.7366 -0.259292 0.0998311
LeftFoot -13.6276 0.079496 -0.113898
LeftToes 3.91355e-005 3.11907e-005 -4.10385e-006
286
root 2.49846 31.6151 -21.4847 -163.814 10.6802 -176.543
RightUpLeg -68.4192 7.87519 -5.18668
RightLeg 56.5947 4.02939 6.12967
RightFoot -7.90912 -0.158085 3.48442
RightToes -0.000541893 -0.000659172 -0.000493268
Spine 15.8977 0.95777 1.55892
Spine1 32.1771 1.05944 2.06292
HEad -19.2677 5.40016 -14.2156
LeftShoulder1 -3.88251e-019 -0 -3.92111e-022
LeftArm -23.2124 -18.4537 -82.9949
LeftForeArm 22.5437 -12.8164 -3.36844
LeftHand -1.67866 -5.46259 18.1345
RightShoulder 7.45443e-017 -2.42657e-020 1.96277e-018
RightArm -4.80056 21.3249 72.8316
RightForeArm 2.56066 17.8022 6.83889
RightHand -2.03177 12.2787 -13.6656
LeftUpLeg -66.4381 1.21985 1.50635
LeftLeg 63.5168 0.127384 0.938743
LeftFoot -15.0267 0.0764869 -0.423832
LeftToes 3.91355e-005 3.11907e-005 -4.10385e-006
